<?xml version="1.0" standalone="no"?><!DOCTYPE svg PUBLIC "-//W3C//DTD SVG 1.1//EN" "http://www.w3.org/Graphics/SVG/1.1/DTD/svg11.dtd"><svg t="1601883931305" class="icon" viewBox="0 0 1024 1024" version="1.1" xmlns="http://www.w3.org/2000/svg" p-id="7693" xmlns:xlink="http://www.w3.org/1999/xlink" width="400" height="400"><defs><style type="text/css"></style></defs><path d="M512.0512 70.0416l229.4784 121.4464 229.376 121.5488H53.1968l229.4784-121.5488zM256.6656 794.624a20.38784 20.38784 0 0 1-18.6368 21.7088h-53.9648a20.3264 20.3264 0 0 1-18.6368-21.7088V370.5856a20.3264 20.3264 0 0 1 18.6368-21.7088h53.9648a20.38784 20.38784 0 0 1 18.6368 21.7088V794.624z m42.1888-427.9296a13.73184 13.73184 0 0 1-12.5952 14.6432h-150.528a13.64992 13.64992 0 0 1-12.4928-14.6432v-22.016a13.64992 13.64992 0 0 1 12.4928-14.6432h150.528a13.73184 13.73184 0 0 1 12.5952 14.6432v22.016z m-123.904 7.2704a39.4752 39.4752 0 1 1-39.2192-43.9296 41.84064 41.84064 0 0 1 39.2192 43.9296z m150.528 0a39.424 39.424 0 1 1-39.2192-43.9296 41.76896 41.76896 0 0 1 39.2192 43.9296z m232.2432 420.6592a20.38784 20.38784 0 0 1-18.6368 21.7088h-53.9648a20.3264 20.3264 0 0 1-18.6368-21.7088V370.5856a20.3264 20.3264 0 0 1 18.6368-21.7088h53.9648a20.38784 20.38784 0 0 1 18.6368 21.7088V794.624z m42.1888-427.9296a13.73184 13.73184 0 0 1-12.5952 14.6432h-150.528a13.64992 13.64992 0 0 1-12.4928-14.6432v-22.016a13.64992 13.64992 0 0 1 12.4928-14.6432h150.528a13.73184 13.73184 0 0 1 12.5952 14.6432v22.016z m-123.904 7.2704a39.4752 39.4752 0 1 1-39.2192-43.9296 41.76896 41.76896 0 0 1 39.2192 43.9296z m150.6304 0a39.4752 39.4752 0 1 1-39.3216-43.9296 41.85088 41.85088 0 0 1 39.3216 43.9296z m232.1408 420.6592a20.38784 20.38784 0 0 1-18.6368 21.7088h-54.0672a20.38784 20.38784 0 0 1-18.6368-21.7088V370.5856a20.38784 20.38784 0 0 1 18.6368-21.7088h54.0672a20.38784 20.38784 0 0 1 18.6368 21.7088V794.624z m42.1888-427.9296a13.73184 13.73184 0 0 1-12.5952 14.6432h-150.528a13.73184 13.73184 0 0 1-12.5952-14.6432v-22.016a13.73184 13.73184 0 0 1 12.5952-14.6432h150.528a13.73184 13.73184 0 0 1 12.5952 14.6432v22.016z m-123.904 7.2704a39.4752 39.4752 0 1 1-39.2192-43.9296 41.84064 41.84064 0 0 1 39.2192 43.9296z m150.528 0a39.424 39.424 0 1 1-39.2192-43.9296 41.76896 41.76896 0 0 1 39.2192 43.9296z m-45.6704 479.3344a18.4832 18.4832 0 0 1-20.0704 16.384h-699.5968a18.55488 18.55488 0 0 1-20.0704-16.384 18.55488 18.55488 0 0 1 20.0704-16.4864h699.5968a18.49344 18.49344 0 0 1 20.0704 16.4864z m0 42.1888a18.432 18.432 0 0 1-20.0704 16.2816h-699.5968a18.432 18.432 0 0 1-20.0704-16.2816 18.55488 18.55488 0 0 1 20.0704-16.4864h699.5968a18.49344 18.49344 0 0 1 20.0704 16.4864z m0 42.0864a18.49344 18.49344 0 0 1-20.0704 16.4864h-699.5968a18.55488 18.55488 0 0 1-20.0704-16.4864 18.55488 18.55488 0 0 1 20.0704-16.384h699.5968a18.4832 18.4832 0 0 1 20.0704 16.384z" p-id="7694" fill="#ffffff"></path></svg>